<?xml version="1.0" encoding="utf-8" ?>
<svg baseProfile="tiny" height="558" version="1.2" width="1024" xmlns="http://www.w3.org/2000/svg" xmlns:ev="http://www.w3.org/2001/xml-events" xmlns:xlink="http://www.w3.org/1999/xlink"><defs /><path d="M 982,500 L 982,502 L 981,503 L 981,504 L 980,505 L 980,506 L 978,508 L 978,509 L 977,510 L 976,510 L 976,511 L 975,512 L 974,512 L 972,514 L 971,514 L 970,515 L 969,515 L 968,516 L 966,516 L 966,518 L 967,519 L 969,519 L 970,520 L 971,520 L 972,521 L 973,521 L 979,527 L 979,528 L 980,529 L 980,530 L 981,531 L 981,532 L 982,533 L 982,535 L 983,535 L 984,534 L 984,532 L 985,531 L 985,530 L 986,529 L 986,528 L 988,526 L 988,525 L 989,524 L 990,524 L 993,521 L 994,521 L 996,519 L 999,519 L 1000,518 L 1000,517 L 999,516 L 998,516 L 997,515 L 995,515 L 993,513 L 992,513 L 987,508 L 987,507 L 985,505 L 985,503 L 984,502 L 984,501 L 983,500 Z" fill="#767777" fill-rule="evenodd" /><path d="M 642,255 L 641,255 L 641,258 L 640,259 L 640,262 L 639,263 L 639,265 L 638,266 L 638,268 L 636,271 L 636,273 L 635,274 L 635,276 L 634,277 L 634,278 L 633,279 L 632,282 L 630,284 L 630,285 L 627,288 L 627,289 L 626,290 L 626,291 L 624,293 L 624,294 L 618,300 L 618,301 L 615,304 L 614,304 L 606,312 L 605,312 L 598,318 L 597,318 L 595,320 L 592,321 L 590,323 L 587,324 L 585,326 L 583,326 L 581,328 L 579,328 L 578,329 L 577,329 L 576,330 L 575,330 L 570,333 L 568,333 L 565,335 L 563,335 L 562,336 L 560,336 L 559,337 L 557,337 L 556,338 L 554,338 L 553,339 L 549,339 L 548,340 L 545,340 L 544,341 L 540,341 L 539,342 L 531,342 L 530,343 L 525,343 L 527,345 L 529,345 L 532,347 L 534,347 L 535,348 L 538,348 L 539,349 L 541,349 L 542,350 L 545,350 L 546,351 L 551,351 L 552,352 L 573,352 L 574,351 L 579,351 L 580,350 L 583,350 L 584,349 L 586,349 L 587,348 L 589,348 L 590,347 L 592,347 L 595,345 L 597,345 L 598,344 L 599,344 L 600,343 L 603,342 L 605,340 L 606,340 L 609,337 L 610,337 L 613,334 L 614,334 L 625,323 L 625,322 L 628,319 L 628,318 L 630,316 L 631,313 L 633,311 L 633,310 L 636,305 L 636,303 L 638,300 L 638,298 L 639,297 L 639,295 L 640,294 L 640,292 L 641,291 L 641,285 L 642,284 L 642,279 L 643,278 L 643,264 L 642,263 Z" fill="#e60705" fill-rule="evenodd" /><path d="M 583,165 L 565,158 L 583,175 L 592,190 L 597,207 L 598,226 L 587,255 L 567,275 L 577,254 L 516,214 L 480,198 L 449,195 L 426,200 L 406,212 L 392,229 L 385,245 L 380,269 L 380,289 L 385,315 L 385,295 L 391,271 L 400,254 L 414,239 L 442,227 L 461,227 L 483,234 L 471,238 L 463,246 L 454,267 L 452,295 L 462,334 L 475,355 L 493,372 L 513,383 L 550,391 L 533,395 L 515,395 L 491,389 L 463,372 L 444,350 L 432,320 L 431,288 L 436,269 L 444,254 L 461,236 L 440,244 L 417,262 L 406,278 L 398,303 L 398,328 L 405,351 L 422,376 L 440,390 L 469,404 L 490,409 L 534,408 L 561,399 L 583,386 L 600,372 L 620,349 L 592,363 L 556,367 L 525,357 L 501,338 L 547,322 L 585,300 L 607,279 L 620,257 L 625,235 L 620,205 L 609,187 Z M 488,241 L 495,241 L 496,242 L 497,242 L 498,243 L 499,243 L 500,244 L 501,244 L 503,246 L 504,246 L 505,247 L 506,247 L 508,249 L 509,249 L 510,250 L 511,250 L 512,251 L 513,251 L 515,253 L 516,253 L 517,254 L 518,254 L 520,256 L 521,256 L 522,257 L 523,257 L 525,259 L 526,259 L 527,260 L 528,260 L 530,262 L 531,262 L 532,263 L 533,263 L 534,264 L 535,264 L 536,265 L 537,265 L 539,267 L 540,267 L 542,269 L 543,269 L 544,270 L 545,270 L 546,271 L 547,271 L 550,274 L 550,275 L 551,276 L 551,278 L 552,279 L 551,280 L 551,282 L 547,286 L 546,286 L 544,288 L 543,288 L 541,290 L 540,290 L 538,292 L 537,292 L 536,293 L 535,293 L 534,294 L 533,294 L 531,296 L 530,296 L 529,297 L 528,297 L 527,298 L 526,298 L 524,300 L 523,300 L 522,301 L 521,301 L 519,303 L 518,303 L 517,304 L 516,304 L 514,306 L 513,306 L 512,307 L 511,307 L 509,309 L 508,309 L 507,310 L 506,310 L 505,311 L 504,311 L 503,312 L 502,312 L 499,315 L 498,315 L 497,316 L 496,316 L 495,317 L 489,317 L 485,313 L 485,312 L 484,311 L 484,247 L 485,246 L 485,245 L 486,244 L 486,243 Z" fill="#d70605" fill-rule="evenodd" /><path d="M 424,181 L 424,182 L 426,180 L 428,180 L 432,177 L 434,177 L 435,176 L 437,176 L 438,175 L 441,175 L 442,174 L 443,174 L 444,173 L 446,173 L 447,172 L 450,172 L 451,171 L 455,171 L 456,170 L 464,170 L 465,169 L 471,169 L 472,170 L 482,170 L 483,171 L 487,171 L 488,172 L 492,172 L 493,173 L 495,173 L 496,174 L 501,175 L 502,176 L 503,176 L 504,177 L 506,177 L 511,180 L 513,180 L 515,182 L 518,183 L 520,185 L 521,185 L 523,187 L 524,187 L 526,189 L 527,189 L 529,191 L 530,191 L 534,195 L 535,195 L 549,209 L 549,210 L 555,216 L 555,217 L 558,220 L 558,221 L 560,223 L 560,224 L 562,226 L 562,227 L 564,229 L 564,230 L 568,234 L 568,235 L 574,241 L 575,241 L 576,242 L 578,242 L 579,243 L 580,243 L 581,242 L 581,237 L 582,236 L 582,219 L 581,218 L 581,213 L 580,212 L 580,208 L 579,207 L 579,205 L 578,204 L 578,202 L 577,201 L 576,196 L 575,195 L 572,188 L 570,186 L 569,183 L 566,180 L 566,179 L 564,177 L 564,176 L 554,166 L 553,166 L 550,163 L 549,163 L 543,158 L 542,158 L 537,155 L 535,155 L 532,153 L 530,153 L 529,152 L 527,152 L 526,151 L 524,151 L 523,150 L 520,150 L 519,149 L 515,149 L 514,148 L 505,148 L 504,147 L 497,147 L 496,148 L 487,148 L 486,149 L 482,149 L 481,150 L 478,150 L 477,151 L 475,151 L 474,152 L 471,152 L 470,153 L 468,153 L 465,155 L 463,155 L 462,156 L 451,161 L 449,163 L 446,164 L 444,166 L 443,166 L 441,168 L 440,168 L 438,170 L 437,170 L 435,172 L 434,172 Z" fill="#ed0604" fill-rule="evenodd" /></svg>